Results
version=1
nRows=41
nColumns=17
inDegrees=yes
endheader
time	/jointset/r_shoulder/r_shoulder_elev/value	/jointset/r_shoulder/r_shoulder_elev/speed	/jointset/r_elbow/r_elbow_flex/value	/jointset/r_elbow/r_elbow_flex/speed	/forceset/TRIlong/activation	/forceset/TRIlong/fiber_length	/forceset/TRIlat/activation	/forceset/TRIlat/fiber_length	/forceset/TRImed/activation	/forceset/TRImed/fiber_length	/forceset/BIClong/activation	/forceset/BIClong/fiber_length	/forceset/BICshort/activation	/forceset/BICshort/fiber_length	/forceset/BRA/activation	/forceset/BRA/fiber_length
      2.83420579	     -0.20062684	     -3.87474221	     22.01420188	      2.25334430	     -0.33946099	      0.14518065	     -0.33946099	      0.07919755	     -0.33946099	      0.07419657	     -0.33946099	      0.14310224	     -0.33946099	      0.14226419	     -0.33946099	      0.08814961
      2.84227421	     -0.23482986	     -4.60140410	     22.03344877	      2.51580511	     -0.34049980	      0.14516795	     -0.34049980	      0.07920482	     -0.34049980	      0.07420389	     -0.34049980	      0.14310641	     -0.34049980	      0.14226147	     -0.34049980	      0.08814543
      2.85034263	     -0.27483747	     -5.31295190	     22.05475180	      2.76175965	     -0.34153861	      0.14515265	     -0.34153861	      0.07921297	     -0.34153861	      0.07421208	     -0.34153861	      0.14311183	     -0.34153861	      0.14225873	     -0.34153861	      0.08814049
      2.85841105	     -0.32052533	     -6.00975469	     22.07798721	      2.99641387	     -0.34257742	      0.14513454	     -0.34257742	      0.07922195	     -0.34257742	      0.07422109	     -0.34257742	      0.14311850	     -0.34257742	      0.14225602	     -0.34257742	      0.08813544
      2.86647947	     -0.37176708	     -6.68879518	     22.10305686	      3.21453419	     -0.34361623	      0.14511373	     -0.34361623	      0.07923171	     -0.34361623	      0.07423088	     -0.34361623	      0.14312641	     -0.34361623	      0.14225337	     -0.34361623	      0.08812953
      2.87352658	     -0.42095326	     -7.26825736	     22.12635750	      3.39704425	     -0.34452354	      0.14509336	     -0.34452354	      0.07924085	     -0.34452354	      0.07424003	     -0.34452354	      0.14313434	     -0.34452354	      0.14225113	     -0.34452354	      0.08812445
      2.88057369	     -0.47417094	     -7.83260388	     22.15090408	      3.56750950	     -0.34543086	      0.14507098	     -0.34543086	      0.07925052	     -0.34543086	      0.07424971	     -0.34543086	      0.14314321	     -0.34543086	      0.14224898	     -0.34543086	      0.08811877
      2.88912151	     -0.54397911	     -8.49733657	     22.18224104	      3.76285687	     -0.34653139	      0.14504119	     -0.34653139	      0.07926293	     -0.34653139	      0.07426213	     -0.34653139	      0.14315520	     -0.34653139	      0.14224652	     -0.34653139	      0.08811175
      2.89766934	     -0.61936931	     -9.13791037	     22.21518633	      3.94224528	     -0.34763192	      0.14500857	     -0.34763192	      0.07927602	     -0.34763192	      0.07427522	     -0.34763192	      0.14316854	     -0.34763192	      0.14224428	     -0.34763192	      0.08810405
      2.90472446	     -0.68565053	     -9.64891964	     22.24349792	      4.08247296	     -0.34854027	      0.14497957	     -0.34854027	      0.07928732	     -0.34854027	      0.07428652	     -0.34854027	      0.14318053	     -0.34854027	      0.14224261	     -0.34854027	      0.08809780
      2.91177957	     -0.75547417	    -10.14179759	     22.27276199	      4.21165285	     -0.34944862	      0.14494875	     -0.34944862	      0.07929903	     -0.34944862	      0.07429822	     -0.34944862	      0.14319341	     -0.34944862	      0.14224112	     -0.34944862	      0.08809101
      2.92038741	     -0.84527685	    -10.71917629	     22.30965579	      4.35892875	     -0.35055687	      0.14490875	     -0.35055687	      0.07931383	     -0.35055687	      0.07431300	     -0.35055687	      0.14321027	     -0.35055687	      0.14223957	     -0.35055687	      0.08808270
      2.92899524	     -0.93992945	    -11.26788413	     22.34776073	      4.49136000	     -0.35166513	      0.14486622	     -0.35166513	      0.07932916	     -0.35166513	      0.07432831	     -0.35166513	      0.14322837	     -0.35166513	      0.14223836	     -0.35166513	      0.08807377
      2.93588226	     -1.01898505	    -11.68695032	     22.37903892	      4.59091697	     -0.35255184	      0.14483044	     -0.35255184	      0.07934177	     -0.35255184	      0.07434090	     -0.35255184	      0.14324371	     -0.35255184	      0.14223765	     -0.35255184	      0.08806682
      2.94276928	     -1.10085984	    -12.08632341	     22.41097119	      4.68082853	     -0.35343854	      0.14479315	     -0.35343854	      0.07935466	     -0.35343854	      0.07435377	     -0.35343854	      0.14325979	     -0.35343854	      0.14223718	     -0.35343854	      0.08805942
      2.95157025	     -1.20937696	    -12.56876427	     22.45263761	      4.78631677	     -0.35457167	      0.14474344	     -0.35457167	      0.07937152	     -0.35457167	      0.07437059	     -0.35457167	      0.14328136	     -0.35457167	      0.14223695	     -0.35457167	      0.08804998
      2.96037121	     -1.32199655	    -13.01787924	     22.49517978	      4.87823318	     -0.35570479	      0.14469151	     -0.35570479	      0.07938876	     -0.35570479	      0.07438780	     -0.35570479	      0.14330404	     -0.35570479	      0.14223708	     -0.35570479	      0.08804002
      2.96713816	     -1.41119346	    -13.34143638	     22.52841587	      4.94412336	     -0.35657603	      0.14465017	     -0.35657603	      0.07940226	     -0.35657603	      0.07440126	     -0.35657603	      0.14332219	     -0.35657603	      0.14223743	     -0.35657603	      0.08803261
      2.97390511	     -1.50251076	    -13.64437171	     22.56207271	      5.00221685	     -0.35744728	      0.14460768	     -0.35744728	      0.07941593	     -0.35744728	      0.07441490	     -0.35744728	      0.14334092	     -0.35744728	      0.14223803	     -0.35744728	      0.08802481
      2.98297552	     -1.62799687	    -14.01901805	     22.60776886	      5.07254555	     -0.35861509	      0.14454903	     -0.35861509	      0.07943452	     -0.35861509	      0.07443344	     -0.35861509	      0.14336689	     -0.35861509	      0.14223925	     -0.35861509	      0.08801441
      2.99204593	     -1.75671309	    -14.35581492	     22.65405772	      5.13099202	     -0.35978291	      0.14448860	     -0.35978291	      0.07945338	     -0.35978291	      0.07445224	     -0.35978291	      0.14339376	     -0.35978291	      0.14224097	     -0.35978291	      0.08800356
      2.99852898	     -1.85050106	    -14.57430675	     22.68744909	      5.16952613	     -0.36061760	      0.14444441	     -0.36061760	      0.07946700	     -0.36061760	      0.07446582	     -0.36061760	      0.14341348	     -0.36061760	      0.14224251	     -0.36061760	      0.08799612
      3.00501203	     -1.94564062	    -14.77266964	     22.72106973	      5.20151538	     -0.36145229	      0.14439947	     -0.36145229	      0.07948072	     -0.36145229	      0.07447950	     -0.36145229	      0.14343359	     -0.36145229	      0.14224430	     -0.36145229	      0.08798834
      3.01463033	     -2.08900536	    -15.03103139	     22.77129813	      5.24164469	     -0.36269065	      0.14433154	     -0.36269065	      0.07950124	     -0.36269065	      0.07449995	     -0.36269065	      0.14346407	     -0.36269065	      0.14224744	     -0.36269065	      0.08797688
      3.02272299	     -2.21140883	    -15.21408907	     22.81382487	      5.26663357	     -0.36373258	      0.14427338	     -0.36373258	      0.07951863	     -0.36373258	      0.07451728	     -0.36373258	      0.14349025	     -0.36373258	      0.14225050	     -0.36373258	      0.08796699
      3.03081565	     -2.33516829	    -15.36666681	     22.85652906	      5.28725190	     -0.36477451	      0.14421444	     -0.36477451	      0.07953610	     -0.36477451	      0.07453471	     -0.36477451	      0.14351693	     -0.36477451	      0.14225395	     -0.36477451	      0.08795735
      3.03890831	     -2.46003538	    -15.48707201	     22.89937405	      5.29920612	     -0.36581644	      0.14415484	     -0.36581644	      0.07955365	     -0.36581644	      0.07455219	     -0.36581644	      0.14354400	     -0.36581644	      0.14225777	     -0.36581644	      0.08794730
      3.04700097	     -2.58574980	    -15.57683293	     22.94229065	      5.30725614	     -0.36685837	      0.14409475	     -0.36685837	      0.07957124	     -0.36685837	      0.07456972	     -0.36685837	      0.14357121	     -0.36685837	      0.14226195	     -0.36685837	      0.08793772
      3.05384149	     -2.69248832	    -15.62700874	     22.97859481	      5.30609885	     -0.36773909	      0.14404365	     -0.36773909	      0.07958614	     -0.36773909	      0.07458456	     -0.36773909	      0.14359438	     -0.36773909	      0.14226574	     -0.36773909	      0.08792915
      3.06068201	     -2.79949460	    -15.65528764	     23.01488119	      5.30256184	     -0.36861980	      0.14399237	     -0.36861980	      0.07960103	     -0.36861980	      0.07459940	     -0.36861980	      0.14361766	     -0.36861980	      0.14226977	     -0.36861980	      0.08792091
      3.06951946	     -2.93788748	    -15.65790604	     23.06169476	      5.29007330	     -0.36975763	      0.14392598	     -0.36975763	      0.07962026	     -0.36975763	      0.07461856	     -0.36975763	      0.14364783	     -0.36975763	      0.14227530	     -0.36975763	      0.08791007
      3.07835690	     -3.07613766	    -15.62359020	     23.10836675	      5.27220771	     -0.37089545	      0.14385961	     -0.37089545	      0.07963945	     -0.37089545	      0.07463768	     -0.37089545	      0.14367801	     -0.37089545	      0.14228116	     -0.37089545	      0.08789955
      3.08527045	     -3.18397986	    -15.56985430	     23.14474622	      5.25083385	     -0.37178557	      0.14380781	     -0.37178557	      0.07965442	     -0.37178557	      0.07465259	     -0.37178557	      0.14370158	     -0.37178557	      0.14228596	     -0.37178557	      0.08789098
      3.09218400	     -3.29137349	    -15.49401152	     23.18096760	      5.22696798	     -0.37267569	      0.14375621	     -0.37267569	      0.07966933	     -0.37267569	      0.07466744	     -0.37267569	      0.14372507	     -0.37267569	      0.14229093	     -0.37267569	      0.08788275
      3.10115468	     -3.42979994	    -15.36140830	     23.22769045	      5.18791172	     -0.37383066	      0.14368969	     -0.37383066	      0.07968858	     -0.37383066	      0.07468661	     -0.37383066	      0.14375535	     -0.37383066	      0.14229760	     -0.37383066	      0.08787190
      3.11012536	     -3.56686751	    -15.19178906	     23.27402912	      5.14325343	     -0.37498564	      0.14362384	     -0.37498564	      0.07970769	     -0.37498564	      0.07470564	     -0.37498564	      0.14378532	     -0.37498564	      0.14230448	     -0.37498564	      0.08786146
      3.11690500	     -3.66935358	    -15.03809544	     23.30876248	      5.10213451	     -0.37585852	      0.14357462	     -0.37585852	      0.07972203	     -0.37585852	      0.07471992	     -0.37585852	      0.14380772	     -0.37585852	      0.14230980	     -0.37585852	      0.08785326
      3.12368464	     -3.77072816	    -14.86407073	     23.34320761	      5.05860320	     -0.37673139	      0.14352596	     -0.37673139	      0.07973625	     -0.37673139	      0.07473408	     -0.37673139	      0.14382984	     -0.37673139	      0.14231520	     -0.37673139	      0.08784542
      3.13292669	     -3.90688077	    -14.59311181	     23.38965574	      4.99100790	     -0.37792131	      0.14346064	     -0.37792131	      0.07975545	     -0.37792131	      0.07475320	     -0.37792131	      0.14385952	     -0.37792131	      0.14232264	     -0.37792131	      0.08783465
      3.14216875	     -4.04035440	    -14.28515354	     23.43544182	      4.91730587	     -0.37911122	      0.14339670	     -0.37911122	      0.07977440	     -0.37911122	      0.07477206	     -0.37911122	      0.14388853	     -0.37911122	      0.14233014	     -0.37911122	      0.08782436
      3.14868288	     -4.13263765	    -14.04502069	     23.46728281	      4.85782020	     -0.37994992	      0.14335254	     -0.37994992	      0.07978759	     -0.37994992	      0.07478519	     -0.37994992	      0.14390855	     -0.37994992	      0.14233544	     -0.37994992	      0.08781680
